<svg viewBox="0 0 106 27.2565" fill="none" xmlns="http://www.w3.org/2000/svg">
<g id="Art">
<path id="Vector" d="M89.9779 23.7388C89.9779 24.6708 89.6045 25.5647 88.9398 26.2242C88.275 26.8838 87.3732 27.255 86.4323 27.2565H76.9069C76.8981 27.2565 76.8896 27.253 76.8834 27.2468C76.8771 27.2406 76.8736 27.2322 76.8736 27.2234V24.0856C76.8736 24.0768 76.8771 24.0684 76.8834 24.0622C76.8896 24.0561 76.8981 24.0526 76.9069 24.0526H85.0041C85.1911 24.0526 85.3763 24.0159 85.5489 23.9447C85.7216 23.8734 85.8783 23.7691 86.0101 23.6375C86.1418 23.506 86.246 23.35 86.3165 23.1784C86.3871 23.0068 86.4227 22.8231 86.4212 22.6378V20.5569C86.4212 20.5496 86.4183 20.5426 86.413 20.5375C86.4078 20.5323 86.4008 20.5294 86.3934 20.5294C86.386 20.5294 86.379 20.5323 86.3738 20.5375C86.3685 20.5426 86.3656 20.5496 86.3656 20.5569C85.888 21.3222 85.2154 21.9494 84.4155 22.3756C83.6155 22.8017 82.7164 23.0118 81.8086 22.9846C78.6019 22.9846 76.8403 20.678 76.8403 17.1549V7.60926H76.868H80.3414H80.3692V16.7475C80.3692 18.8449 81.2639 19.9899 83.2646 19.9899C85.5598 19.9899 86.2711 18.5036 86.4101 17.2374V17.0338V7.60926C86.4151 7.60636 86.4209 7.60483 86.4267 7.60483C86.4326 7.60483 86.4383 7.60636 86.4434 7.60926H89.9335C89.9385 7.60636 89.9443 7.60483 89.9501 7.60483C89.956 7.60483 89.9617 7.60636 89.9668 7.60926L89.9779 23.7388Z" fill="black"/>
<path id="Vector_2" d="M45.0855 16.0319H55.3278V14.3419C55.3278 9.81679 52.8769 7.34507 48.4977 7.34507C43.6684 7.34507 41.362 10.004 41.362 14.2483V16.0319C41.362 20.3258 43.6684 22.9847 48.4977 22.9847C52.7158 22.9847 54.9276 20.9093 55.2111 17.8045V17.2265H51.6043L51.5487 17.9476C51.5366 18.1104 51.5049 18.2712 51.4543 18.4265C51.1653 19.2908 50.2594 19.9734 48.5311 19.9734C45.9913 19.9734 45.0466 18.5311 45.0466 16.3842V16.0814C45.0463 16.07 45.05 16.0588 45.0571 16.0498C45.0642 16.0408 45.0742 16.0344 45.0855 16.0319ZM48.4199 10.3563C50.7429 10.3563 51.6766 11.5509 51.671 13.4391C51.6698 13.4503 51.6647 13.4608 51.6566 13.4689C51.6485 13.4769 51.6379 13.4819 51.6265 13.4831H45.1188C45.1125 13.4831 45.1062 13.4819 45.1004 13.4793C45.0946 13.4768 45.0895 13.473 45.0853 13.4683C45.0811 13.4636 45.0779 13.4581 45.076 13.4521C45.0742 13.4461 45.0736 13.4398 45.0744 13.4336C45.23 11.5949 46.197 10.3563 48.4199 10.3563Z" fill="black"/>
<path id="Vector_3" d="M60.3904 3.07322H56.8337V22.7424H60.3904V3.07322Z" fill="black"/>
<path id="Vector_4" d="M65.5977 7.58172H62.0688V22.7424H65.5977V13.6922C65.5977 12.338 66.1146 10.3342 68.7766 10.3342C70.7772 10.3342 71.672 11.4737 71.672 13.5766V22.7424H75.2065V13.1748C75.2065 9.65709 73.4392 7.345 70.2382 7.345C69.3232 7.32154 68.418 7.53585 67.6126 7.9666C66.8073 8.39736 66.1298 9.02954 65.6478 9.80022C65.6478 9.80752 65.6448 9.81452 65.6396 9.81968C65.6344 9.82484 65.6273 9.82774 65.62 9.82774C65.6126 9.82774 65.6055 9.82484 65.6003 9.81968C65.5951 9.81452 65.5922 9.80752 65.5922 9.80022L65.5977 7.58172Z" fill="black"/>
<path id="Vector_5" d="M96.4801 14.8758C96.4895 14.8906 96.4945 14.9078 96.4945 14.9253C96.4945 14.9428 96.4895 14.96 96.4801 14.9749L91.2895 22.7424H95.1797L98.5141 17.6888C98.518 17.6819 98.5236 17.6762 98.5305 17.6722C98.5373 17.6682 98.5451 17.6661 98.553 17.6661C98.561 17.6661 98.5688 17.6682 98.5756 17.6722C98.5824 17.6762 98.5881 17.6819 98.5919 17.6888L101.899 22.7424H106L100.832 14.9859C100.823 14.9716 100.819 14.9555 100.819 14.9391C100.819 14.9227 100.823 14.9065 100.832 14.8923L105.805 7.5817H101.771L98.8198 12.1783C98.8157 12.184 98.8102 12.1887 98.804 12.1918C98.7977 12.195 98.7907 12.1967 98.7837 12.1967C98.7766 12.1967 98.7696 12.195 98.7634 12.1918C98.7571 12.1887 98.7517 12.184 98.7475 12.1783L95.8132 7.5762H91.5285L96.4801 14.8758Z" fill="black"/>
<path id="Vector_6" d="M40.1782 19.6101H35.5378C35.1667 19.6102 34.8104 19.4661 34.5454 19.2087C34.2805 18.9514 34.1279 18.6014 34.1207 18.2339V12.1179C34.1207 11.7456 34.27 11.3885 34.5357 11.1253C34.8015 10.862 35.162 10.7141 35.5378 10.7141H40.1782V7.57627H35.5378C35.162 7.57627 34.8015 7.42838 34.5357 7.16512C34.27 6.90186 34.1207 6.54481 34.1207 6.17251V3.07322H30.5806V6.17251C30.5806 6.35732 30.5438 6.54031 30.4722 6.71098C30.4006 6.88165 30.2958 7.03665 30.1636 7.16707C30.0314 7.2975 29.8745 7.40078 29.7019 7.471C29.5294 7.54122 29.3445 7.577 29.1579 7.57627H27.0406V10.7141H29.169C29.5449 10.7141 29.9053 10.862 30.1711 11.1253C30.4369 11.3885 30.5862 11.7456 30.5862 12.1179V19.2248C30.5979 20.1627 30.9826 21.0582 31.6569 21.7168C32.3311 22.3754 33.2404 22.744 34.1874 22.7424H40.1782V19.6101Z" fill="black"/>
<g id="Group 1">
<path id="Vector_7" d="M24.9122 20.9147C25.3369 20.149 25.4578 19.2539 25.2512 18.4045C25.192 18.1697 25.1101 17.9411 25.0067 17.7219C24.974 17.6499 24.9369 17.5801 24.8955 17.5127L21.5277 11.2095H18.0822L21.6055 17.8155C21.7162 18.0075 21.7743 18.2247 21.7743 18.4458C21.7743 18.6668 21.7162 18.8841 21.6055 19.0761C21.4978 19.2555 21.3448 19.404 21.1617 19.5073C20.9786 19.6106 20.7715 19.6649 20.5608 19.6651H16.5428C16.4983 20.2801 16.3055 20.8755 15.9806 21.4014C15.6557 21.9273 15.2081 22.3683 14.6755 22.6873H22.0613C22.5543 22.6549 23.0342 22.5158 23.4673 22.28C24.0784 21.9818 24.5826 21.5053 24.9122 20.9147V20.9147Z" fill="black"/>
<path id="Vector_8" d="M6.02277 7.08628H9.46835L11.1856 3.92093C11.3309 3.64775 11.5487 3.41905 11.8156 3.25951C12.0825 3.09998 12.3883 3.01566 12.7 3.01566C13.0117 3.01566 13.3175 3.09998 13.5844 3.25951C13.8512 3.41905 14.0691 3.64775 14.2144 3.92093L15.8816 7.08628H19.3272L16.8819 2.50615C16.4765 1.74942 15.8707 1.11632 15.1295 0.674798C14.3884 0.233277 13.5398 0 12.675 0C11.8101 0 10.9616 0.233277 10.2204 0.674798C9.47925 1.11632 8.87345 1.74942 8.46802 2.50615L6.02277 7.08628Z" fill="black"/>
<path id="Vector_9" d="M8.80139 10.659C8.83752 10.0466 9.02267 9.45185 9.34104 8.9256C9.65941 8.39935 10.1016 7.95718 10.6298 7.63682H3.96091V10.659H8.80139Z" fill="black"/>
<path id="Vector_10" d="M9.35145 10.8792V19.1367H10.9186C11.2455 19.1331 11.5621 19.0234 11.8201 18.8246C12.078 18.6258 12.2631 18.3486 12.3469 18.0357C12.3806 17.9156 12.3974 17.7915 12.3969 17.6669V12.7124C12.3983 12.1745 12.6139 11.659 12.9968 11.2776C13.3797 10.8962 13.899 10.6799 14.442 10.6756H21.4165V7.63682H12.6192C11.752 7.63828 10.9209 7.98053 10.3082 8.58845C9.69555 9.19636 9.35144 10.0203 9.35145 10.8792V10.8792Z" fill="black"/>
<path id="Vector_11" d="M0.342942 17.7219C0.239542 17.9411 0.157657 18.1697 0.098417 18.4045C-0.108031 19.2557 0.0128176 20.1525 0.437418 20.9203C0.767855 21.5088 1.27202 21.9833 1.88234 22.28C2.31537 22.5158 2.79528 22.6549 3.28836 22.6874H12.6748C13.5591 22.6874 14.4072 22.3394 15.0326 21.7199C15.6579 21.1005 16.0092 20.2604 16.0092 19.3844V11.204H14.4198C14.0291 11.214 13.6576 11.3741 13.3838 11.6504C13.11 11.9267 12.9554 12.2977 12.9526 12.6848V17.6393C12.9512 18.1771 12.7345 18.6924 12.3501 19.0721C11.9656 19.4519 11.4449 19.6651 10.902 19.6651H4.81664C4.60591 19.6649 4.39884 19.6106 4.2157 19.5073C4.03256 19.4041 3.87962 19.2555 3.77185 19.0761C3.66127 18.8831 3.60314 18.665 3.60314 18.443C3.60314 18.2211 3.66127 18.003 3.77185 17.81L7.29523 11.204H3.82186L0.45409 17.5072C0.415188 17.5843 0.376286 17.6503 0.342942 17.7219Z" fill="black"/>
</g>
</g>
</svg>
