<svg width="361" height="100" viewBox="0 0 361 100" fill="none" xmlns="http://www.w3.org/2000/svg">
<path d="M322 99.9231V90.3484L346.694 60.4039H322V50.9231H361V60.2162L335.486 90.3484H361V99.9231H322Z" fill="#100703"/>
<path d="M306 50.9231H318V99.9231H306V50.9231Z" fill="#100703"/>
<path d="M307.36 44.4636C308.32 45.4366 309.867 45.9231 312 45.9231C314.08 45.9231 315.6 45.4366 316.56 44.4636C317.52 43.4907 318 42.2474 318 40.7339V39.1123C318 37.5988 317.52 36.3555 316.56 35.3826C315.6 34.4096 314.08 33.9231 312 33.9231C309.867 33.9231 308.32 34.4096 307.36 35.3826C306.453 36.3555 306 37.5988 306 39.1123V40.7339C306 42.2474 306.453 43.4907 307.36 44.4636Z" fill="#100703"/>
<path d="M256 33.9231H267.975V59.7809C268.848 57.0693 270.875 54.9302 273.308 53.3635C275.74 51.7366 278.578 50.9231 281.821 50.9231C288.058 50.9231 292.798 53.0622 296.042 57.3405C299.347 61.5585 301 67.0627 301 74.9563C301 82.9103 299.347 89.2274 296.042 93.5057C292.798 97.784 288.058 99.9231 281.821 99.9231C278.578 99.9231 275.74 99.1096 273.308 97.4827C270.938 95.8557 269.285 93.6865 268.349 90.9749H267.975V99.9231H256L256 33.9231ZM277.985 90.3422C281.104 90.3422 283.63 89.3479 285.563 87.3595C287.497 85.371 288.464 81.7045 288.464 78.3301L288.464 71.5311C288.464 68.1567 287.497 65.4752 285.563 63.4867C283.63 61.438 281.104 60.4136 277.985 60.4136C275.116 60.4136 272.715 61.1066 270.782 62.4925C268.911 63.8784 267.975 65.7162 267.975 68.006L267.975 82.6594C267.975 85.1299 268.911 87.028 270.782 88.3537C272.715 89.6794 275.116 90.3422 277.985 90.3422Z" fill="#100703"/>
<path d="M228.454 99.9231C224.99 99.9231 221.866 99.3547 219.082 98.218C216.361 97.0812 214.01 95.4359 212.031 93.2821C210.113 91.1282 208.629 88.5556 207.577 85.5641C206.526 82.5128 206 79.1026 206 75.3334C206 71.5641 206.526 68.1838 207.577 65.1923C208.629 62.2009 210.113 59.6581 212.031 57.5641C214.01 55.4103 216.361 53.765 219.082 52.6282C221.866 51.4915 224.99 50.9231 228.454 50.9231C231.918 50.9231 235.041 51.4915 237.825 52.6282C240.608 53.765 242.959 55.4103 244.876 57.5641C246.856 59.6581 248.371 62.2009 249.423 65.1923C250.474 68.1838 251 71.5641 251 75.3334C251 79.1026 250.474 82.5128 249.423 85.5641C248.371 88.5556 246.856 91.1282 244.876 93.2821C242.959 95.4359 240.608 97.0812 237.825 98.218C235.041 99.3547 231.918 99.9231 228.454 99.9231ZM228.454 90.6795C231.608 90.6795 234.082 89.7522 235.876 87.8975C237.67 86.0428 238.567 83.3205 238.567 79.7308V71.0257C238.567 67.4957 237.67 64.8034 235.876 62.9487C234.082 61.094 231.608 60.1667 228.454 60.1667C225.361 60.1667 222.918 61.094 221.124 62.9487C219.33 64.8034 218.433 67.4957 218.433 71.0257V79.7308C218.433 83.3205 219.33 86.0428 221.124 87.8975C222.918 89.7522 225.361 90.6795 228.454 90.6795Z" fill="#100703"/>
<path d="M176.323 99.9231L160 50.9231H171.82L178.669 72.0438L183.453 89.5036H184.11L188.894 72.0438L195.555 50.9231H207L190.583 99.9231H176.323Z" fill="#100703"/>
<path d="M140 3.92313C140 1.71399 138.208 -0.085221 136.001 0.00312009C124.234 0.474056 112.631 3.02043 101.732 7.53518C89.5991 12.5606 78.5752 19.9266 69.2893 29.2125C60.0035 38.4983 52.6375 49.5222 47.612 61.6548C43.0973 72.5544 40.5509 84.1569 40.08 95.9241C39.9916 98.1315 41.7909 99.9231 44 99.9231L87.5381 99.9231C89.7472 99.9231 91.521 98.1292 91.7031 95.9276C92.1163 90.9324 93.3028 86.0232 95.2271 81.3776C97.6625 75.4979 101.232 70.1555 105.732 65.6554C110.232 61.1553 115.575 57.5856 121.454 55.1502C126.1 53.2259 131.009 52.0395 136.005 51.6262C138.206 51.4441 140 49.6704 140 47.4612V3.92313Z" fill="#E83C00"/>
<path d="M0 3.92313C0 1.71399 1.79382 -0.0938136 3.99561 0.086231C9.19306 0.511236 14.3018 1.76361 19.1342 3.80528C25.2005 6.36827 30.7124 10.1249 35.3553 14.8607C39.9983 19.5965 43.6812 25.2187 46.194 31.4063C48.2056 36.3599 49.4357 41.5982 49.8463 46.927C50.016 49.1296 48.2091 50.9231 46 50.9231L4 50.9231C1.79086 50.9231 0 49.1323 0 46.9231V3.92313Z" fill="#E86A00"/>
</svg>
